<svg xmlns="http://www.w3.org/2000/svg" width="842" height="619" viewBox="0 0 842 619" version="1.1"><path d="M 550.895 44.374 C 552.243 45.997, 566.033 54.313, 581.639 62.913 L 592.778 69.051 592.005 72.275 C 591.579 74.049, 589.759 81.295, 587.960 88.378 L 584.688 101.256 587.094 103.200 C 591.071 106.413, 603.662 111.896, 612.344 114.196 C 624.113 117.314, 641.141 117.138, 647.794 113.830 C 652.442 111.519, 652.502 111.425, 655.028 102.506 C 656.840 96.110, 658.070 93.418, 659.288 93.183 C 661.519 92.753, 661.437 93.998, 658.639 103.002 C 655.124 114.313, 653.605 116.660, 647.941 119.530 C 645.090 120.975, 642.077 123.457, 640.956 125.285 C 635.928 133.483, 632.695 147.565, 634.662 152.696 C 635.451 154.753, 636.068 154.373, 644.390 146.706 C 656.322 135.712, 660 130.792, 660 125.825 C 660 123.292, 659.477 121.737, 658.500 121.362 C 656.592 120.630, 656.575 118.598, 658.462 117.031 C 659.266 116.364, 660.850 113.271, 661.982 110.159 C 663.114 107.047, 664.764 102.532, 665.649 100.128 L 667.259 95.755 672.544 96.376 C 681.327 97.409, 681.322 97.403, 680.732 104.746 C 680.293 110.225, 679.753 111.659, 677.108 114.389 C 675.280 116.274, 674 118.647, 674 120.147 C 674 121.550, 672.411 125.692, 670.470 129.351 C 668.528 133.009, 666.841 137.666, 666.720 139.699 C 666.503 143.341, 666.566 143.407, 671 144.196 C 676.750 145.218, 677.529 144.227, 678.436 134.733 C 678.913 129.736, 679.843 126.403, 681.444 123.951 C 683.477 120.839, 683.700 119.536, 683.257 113.343 C 682.678 105.250, 684.234 99, 686.828 99.001 C 688.676 99.002, 707.644 100.644, 715.500 101.483 C 720.224 101.988, 720.390 101.928, 718.500 100.403 C 716.679 98.934, 697.031 89.149, 668.500 75.503 C 662.450 72.609, 649.175 66.223, 639 61.311 C 611.038 47.814, 613.107 48.402, 583.500 45.521 C 552.883 42.541, 549.269 42.414, 550.895 44.374 M 278 54.736 C 273.325 54.917, 252.606 56.127, 231.958 57.424 L 194.416 59.782 184.458 65.247 C 178.981 68.253, 166.291 74.680, 156.258 79.530 C 146.225 84.381, 138.151 88.484, 138.316 88.649 C 138.481 88.814, 144.439 87.403, 151.558 85.513 C 158.676 83.623, 173.500 80.485, 184.500 78.540 C 195.500 76.595, 212.141 73.456, 221.480 71.565 C 230.819 69.674, 238.654 68.321, 238.891 68.558 C 239.415 69.082, 217.237 79.681, 205.771 84.387 C 198.717 87.282, 195.513 87.948, 184 88.911 C 166.411 90.383, 139.309 93.770, 130.687 95.574 C 121.166 97.566, 95.032 107.609, 95.010 109.284 C 95.005 109.716, 97.138 109.837, 99.750 109.554 C 102.363 109.270, 115.300 108.578, 128.500 108.014 C 141.700 107.451, 155.994 106.756, 160.265 106.470 C 167.654 105.976, 168.072 106.061, 168.881 108.225 C 169.349 109.476, 171.459 119.029, 173.570 129.454 C 176.133 142.108, 177.987 148.987, 179.149 150.149 C 184.081 155.081, 204.825 157.432, 218.662 154.629 C 228.715 152.592, 237.366 149.192, 244.436 144.499 C 249.842 140.911, 257 133.620, 257 131.703 C 257 131.187, 254.252 122.156, 250.892 111.633 C 242.841 86.411, 242.702 85.898, 243.684 84.916 C 244.149 84.451, 254.647 78.492, 267.014 71.673 C 300.486 53.217, 299.614 53.845, 291.250 54.204 C 288.637 54.315, 282.675 54.555, 278 54.736 M 674 174.936 C 670.975 176.456, 661.537 180.336, 653.027 183.559 C 644.134 186.927, 635.015 191.137, 631.584 193.459 C 620.775 200.776, 614.822 212.602, 614.620 227.159 C 614.554 231.921, 614.827 236.149, 615.228 236.553 C 615.628 236.958, 620.365 233.061, 625.754 227.894 C 631.144 222.727, 638.678 216.475, 642.496 214 C 646.314 211.525, 653.706 206.645, 658.922 203.155 L 668.406 196.809 663.479 202.655 C 660.769 205.870, 656.251 210.975, 653.437 214 C 638.707 229.839, 632.845 237.373, 628.433 246.133 C 624.658 253.630, 621 265.733, 621 270.730 C 621 274.615, 621.908 274.753, 633.162 272.588 C 642.848 270.725, 650.490 267.777, 657.646 263.145 C 679.912 248.731, 687.290 226.390, 682.500 187.893 C 681.515 179.977, 680.437 173.201, 680.104 172.836 C 679.772 172.471, 677.025 173.416, 674 174.936 M 145.893 179.750 C 145.312 181.262, 143.203 189.250, 141.206 197.500 C 137.939 210.999, 137.572 213.901, 137.538 226.500 C 137.501 240.092, 137.587 240.675, 140.500 246.497 C 144.292 254.078, 155.340 265.260, 164 270.282 C 174.493 276.367, 184.280 279, 196.402 279 C 208.219 279, 213 277.789, 213 274.797 C 213 270.798, 209.788 260.530, 206.522 254.087 C 203.254 247.641, 197.369 240.224, 179.761 220.359 C 170.673 210.106, 168.682 206.863, 174.250 211.381 C 176.037 212.831, 181.875 217.175, 187.222 221.034 C 200.481 230.603, 211.165 239.285, 214.859 243.493 C 216.553 245.422, 218.357 247, 218.869 247 C 220.217 247, 220.722 238.395, 219.750 232 C 217.729 218.705, 203.198 203.752, 179.802 190.891 C 169.522 185.241, 151.209 177, 148.932 177 C 147.693 177, 146.554 178.031, 145.893 179.750 M 384.250 188.728 C 386.313 188.944, 389.688 188.944, 391.750 188.728 C 393.813 188.513, 392.125 188.336, 388 188.336 C 383.875 188.336, 382.188 188.513, 384.250 188.728 M 268.696 261.879 C 263.501 278.662, 262.683 308.117, 266.958 324.500 C 271.937 343.587, 280.537 360.323, 292.059 373.352 C 297.160 379.121, 296.431 379.132, 315.913 372.990 L 329.249 368.785 319.796 359.143 C 308.222 347.337, 304.054 342.226, 296.028 330 C 283.832 311.422, 276.413 293.133, 273.484 274.433 C 272.629 268.970, 271.576 262.700, 271.145 260.500 L 270.361 256.500 268.696 261.879 M 579.673 264.280 C 578.051 283.306, 568.357 308.451, 554.201 330.350 C 547.803 340.248, 542.074 347.158, 530.684 358.708 C 523.760 365.731, 521.068 369.081, 522.059 369.442 C 526.370 371.016, 549.920 378, 550.915 378 C 552.827 378, 561.929 368.952, 566.507 362.500 C 579.678 343.936, 585.352 323.146, 585.338 293.500 C 585.330 277.218, 583.131 258.817, 581.039 257.524 C 580.626 257.269, 580.011 260.309, 579.673 264.280 M 417 356.609 C 413.975 357.345, 404.975 359.106, 397 360.523 C 380.165 363.514, 348.138 370.053, 333 373.589 C 306.332 379.820, 281.095 388.352, 250.119 401.610 C 237.396 407.056, 180.812 435.145, 181.394 435.727 C 181.618 435.952, 189.159 433.130, 198.151 429.457 C 242.850 411.197, 277.420 401.343, 314.233 396.367 C 330.836 394.123, 357.496 394.119, 369.914 396.359 C 386.784 399.401, 397.598 403.903, 409.206 412.717 C 417.627 419.110, 417.165 419.557, 407.354 414.509 C 388.341 404.725, 372.681 401.632, 342 401.599 C 319.739 401.576, 313.424 402.112, 289.616 406.052 C 270.601 409.199, 230.977 419.310, 232.336 420.669 C 232.537 420.871, 238.507 419.699, 245.601 418.066 C 259.830 414.790, 280.324 411.656, 298 410.051 C 310.402 408.925, 333.628 408.831, 338.500 409.887 L 341.500 410.537 341.500 420.174 C 341.500 425.475, 341.802 430.118, 342.170 430.493 C 342.539 430.867, 346.326 431.607, 350.586 432.136 C 367.479 434.233, 380.611 438.119, 385.931 442.595 C 387.526 443.937, 390.039 447.098, 391.517 449.619 C 393.468 452.948, 395.409 454.736, 398.613 456.153 C 410.777 461.534, 443.540 460.583, 456.411 454.475 C 458.140 453.655, 460.426 451.365, 461.491 449.386 C 464.405 443.977, 470.640 439.191, 477.564 437.053 C 483.297 435.282, 498.662 431.898, 507.250 430.514 L 511 429.909 511 420 L 511 410.091 514.607 409.414 C 516.591 409.042, 527.503 408.984, 538.857 409.285 C 561.522 409.885, 582.363 412.655, 604.899 418.061 C 611.719 419.697, 617.498 420.835, 617.743 420.591 C 618.333 420.001, 604.457 415.649, 592.268 412.602 C 552.453 402.648, 514.404 398.935, 488 402.427 C 465.661 405.381, 450.826 410.218, 438.063 418.708 L 431.500 423.075 438.205 416.685 C 468.301 388.004, 533.546 387.049, 612.718 414.130 C 633.153 421.120, 643.937 425.456, 656.250 431.631 C 661.063 434.045, 665 435.855, 665 435.652 C 665 434.289, 637.115 418.868, 618.781 410.091 C 568.514 386.028, 518.660 371.151, 451 360.021 C 437.525 357.805, 425.600 355.830, 424.500 355.631 C 423.400 355.433, 420.025 355.873, 417 356.609 M 676.346 418.540 C 674.582 423.138, 683.082 438.346, 691.699 446.010 C 696.568 450.341, 706.618 455.715, 707.743 454.590 C 708.081 454.252, 707.377 452.649, 706.179 451.028 C 704.981 449.407, 704 447.850, 704 447.569 C 704 447.287, 706.138 448.205, 708.750 449.610 L 713.500 452.163 736 451.751 C 764.913 451.222, 767.635 450.210, 760.872 442.508 C 756.641 437.688, 732.326 425.770, 715.944 420.486 C 708.764 418.170, 705.220 417.685, 692.270 417.248 C 678.236 416.774, 676.985 416.875, 676.346 418.540 M 138.500 419.697 C 126.704 420.761, 104.625 424.463, 97.147 426.630 C 86.021 429.854, 73.709 436.315, 67.750 442.056 C 62.684 446.937, 61.889 449.335, 64.820 450.904 C 68.275 452.753, 84.552 454.362, 100.500 454.431 C 115.109 454.494, 116.886 454.307, 120.945 452.279 C 123.390 451.057, 125.540 450.207, 125.723 450.390 C 125.906 450.573, 124.018 452.988, 121.528 455.758 C 119.037 458.528, 117 461.071, 117 461.409 C 117 462.781, 125.878 460.526, 131.466 457.734 C 143.813 451.565, 155.651 435.685, 156.798 423.750 L 157.254 419 149.877 419.168 C 145.820 419.261, 140.700 419.499, 138.500 419.697 M 268.409 500.500 C 268.408 509.850, 268.558 513.810, 268.743 509.299 C 268.928 504.789, 268.929 497.139, 268.745 492.299 C 268.562 487.460, 268.410 491.150, 268.409 500.500 M 463.286 500.500 C 463.294 503.250, 463.488 504.256, 463.718 502.736 C 463.947 501.216, 463.941 498.966, 463.704 497.736 C 463.467 496.506, 463.279 497.750, 463.286 500.500 M 692.430 524 C 692.430 536.925, 692.573 542.212, 692.747 535.750 C 692.921 529.288, 692.921 518.712, 692.747 512.250 C 692.573 505.788, 692.430 511.075, 692.430 524 M 375.336 525 C 375.336 529.125, 375.513 530.813, 375.728 528.750 C 375.944 526.688, 375.944 523.313, 375.728 521.250 C 375.513 519.188, 375.336 520.875, 375.336 525 M 571.343 526.500 C 571.346 530.900, 571.522 532.576, 571.733 530.224 C 571.945 527.872, 571.942 524.272, 571.727 522.224 C 571.512 520.176, 571.339 522.100, 571.343 526.500" stroke="none" fill="#f7672c" fill-rule="evenodd"/><path d="M 377 189.862 C 366.778 192.056, 357.054 199.467, 354.058 207.347 C 352.652 211.046, 352.707 224.831, 354.145 229.101 C 357.105 237.893, 364.801 243.882, 381.936 250.729 C 394.112 255.595, 400.001 260.762, 399.998 266.579 C 399.996 271.797, 397.287 276.927, 393 279.832 C 389.824 281.984, 388.714 282.161, 380.998 281.741 C 374.023 281.362, 371.380 280.716, 366.277 278.140 C 355.559 272.729, 351.196 274.508, 350.762 284.464 C 350.580 288.653, 350.908 289.515, 353.459 291.549 C 355.056 292.822, 359.093 294.901, 362.431 296.168 C 367.710 298.172, 370.257 298.466, 382 298.424 C 394.432 298.381, 395.959 298.167, 401.298 295.722 C 409.028 292.183, 412.603 289.530, 416.043 284.782 C 420.298 278.908, 422.339 270.881, 421.664 262.672 C 420.401 247.298, 412.028 239.211, 388.209 230.361 C 375.370 225.590, 370.553 217.250, 376.533 210.143 C 381.768 203.922, 392.130 203.397, 402.786 208.812 C 406.237 210.565, 409.643 212, 410.356 212 C 413.002 212, 416.054 207.337, 416.637 202.405 C 417.343 196.424, 416.089 194.992, 407.430 191.895 C 401.035 189.608, 383.608 188.443, 377 189.862 M 448.500 191.491 C 447.950 191.675, 446.271 192.096, 444.768 192.427 C 443.079 192.799, 441.362 194.264, 440.268 196.264 C 438.677 199.176, 438.468 203.508, 438.181 239.500 C 438.006 261.500, 438.160 281.939, 438.524 284.920 C 439.743 294.895, 448.014 299.330, 454.694 293.589 L 457.500 291.178 458 270.339 L 458.500 249.500 478.341 249 C 497.943 248.506, 498.205 248.470, 500.173 246.037 C 502.405 243.277, 502.061 238.313, 499.505 236.403 C 498.631 235.750, 490.298 235.073, 478.894 234.729 C 468.365 234.411, 459.342 233.742, 458.844 233.244 C 458.346 232.746, 458.064 226.524, 458.219 219.419 L 458.500 206.500 482.288 206 C 501.948 205.587, 506.244 205.240, 507.047 204 C 510.387 198.840, 508.733 193.575, 503.298 192.066 C 499.905 191.124, 451.135 190.612, 448.500 191.491 M 618.474 478.042 C 618.119 478.616, 618.150 484.458, 618.542 491.025 C 619.352 504.588, 618.842 505.591, 612.895 502.125 C 608.236 499.410, 603.080 498.632, 598.290 499.922 C 592.595 501.455, 589.534 504.210, 586.395 510.625 C 584.055 515.407, 583.670 517.434, 583.689 524.851 C 583.713 534.117, 585.311 539.534, 589.298 543.865 C 594.471 549.485, 603.587 550.563, 611.581 546.499 C 616.716 543.888, 619 543.878, 619 546.469 C 619 547.503, 619.973 548, 622 548 L 625 548 625 512.500 L 625 477 622.059 477 C 620.441 477, 618.828 477.469, 618.474 478.042 M 184.109 479.369 C 183.299 480.345, 183.048 490.317, 183.236 514.119 L 183.500 547.500 186.750 547.813 L 190 548.127 190 531.691 L 190 515.255 194.410 511.190 C 199.259 506.720, 203.966 505.276, 208.309 506.927 C 212.939 508.688, 214 512.968, 214 529.886 C 214 538.109, 214.273 545.548, 214.607 546.418 C 214.967 547.356, 216.391 548, 218.107 548 L 221 548 220.998 529.750 C 220.997 509.653, 220.310 506.701, 214.674 502.571 C 210.336 499.393, 201.515 499.732, 196.149 503.283 C 193.890 504.777, 191.583 506, 191.021 506 C 190.379 506, 190 501.193, 190 493.035 C 190 481.241, 189.825 479.977, 188.066 479.035 C 185.602 477.716, 185.471 477.727, 184.109 479.369 M 261.667 478.667 C 261.300 479.033, 261 494.783, 261 513.667 L 261 548 263.981 548 C 267.738 548, 268.135 546.546, 267.773 534.103 C 267.594 527.942, 267.879 524.572, 268.599 524.320 C 269.204 524.107, 274.079 529.349, 279.432 535.967 C 288.376 547.023, 289.439 548, 292.524 548 C 294.371 548, 296.132 547.596, 296.437 547.103 C 296.742 546.609, 292.493 540.777, 286.996 534.142 C 281.498 527.507, 277 521.598, 277 521.010 C 277 520.422, 281.163 515.940, 286.250 511.051 C 293.785 503.810, 295.175 502.034, 293.748 501.473 C 290.355 500.140, 286.801 502.146, 278.585 510.034 C 274.021 514.415, 269.773 518, 269.144 518 C 268.327 518, 268 512.733, 268 499.571 C 268 484.152, 267.743 480.886, 266.429 479.571 C 264.778 477.921, 262.790 477.543, 261.667 478.667 M 346.109 479.369 C 345.299 480.345, 345.048 490.317, 345.236 514.119 L 345.500 547.500 348.750 547.813 L 352 548.127 352.006 534.313 C 352.012 517.955, 352.871 514.198, 357.543 510.097 C 361.907 506.265, 364.904 505.483, 369.464 506.988 C 375.006 508.817, 375.771 511.378, 376.579 530.819 L 377.294 548 380.147 548 L 383 548 383 529.960 C 383 513.864, 382.783 511.496, 380.990 507.981 C 376.715 499.601, 365.063 497.977, 356.373 504.549 C 354.654 505.849, 352.966 506.633, 352.623 506.290 C 352.281 505.947, 352 499.982, 352 493.033 C 352 480.565, 351.390 478, 348.422 478 C 347.775 478, 346.734 478.616, 346.109 479.369 M 506.046 481.445 C 504.492 483.317, 505.059 487.020, 507.095 488.295 C 507.973 488.845, 509.855 489.002, 511.279 488.645 C 516.507 487.333, 515.497 480, 510.087 480 C 508.524 480, 506.705 480.650, 506.046 481.445 M 140.768 483.997 C 133.930 487.720, 131.301 496.859, 134.918 504.331 C 137.293 509.236, 141.109 512.161, 150.777 516.488 C 159.140 520.231, 163 524.642, 163 530.458 C 163 541.806, 150.282 546.245, 137.398 539.395 C 134.338 537.768, 132.361 537.239, 131.724 537.876 C 130.039 539.561, 131.894 543.894, 134.984 545.492 C 139.133 547.637, 149.181 548.831, 155.151 547.887 C 168.703 545.745, 175.275 530.570, 167.645 519.040 C 165.529 515.843, 163.116 514.130, 155.740 510.590 C 145.211 505.536, 142.168 502.811, 141.337 497.690 C 140.837 494.608, 141.190 493.656, 143.800 491.046 C 146.305 488.541, 147.657 488, 151.412 488 C 153.924 488, 158.330 488.893, 161.204 489.985 C 166.584 492.030, 168.460 491.599, 167.844 488.462 C 167.081 484.581, 162.479 482.634, 153.255 482.291 C 145.941 482.019, 143.886 482.300, 140.768 483.997 M 237.200 483.200 C 235.560 484.840, 235.690 488.498, 237.440 489.950 C 238.231 490.607, 240.135 490.999, 241.671 490.822 C 245.101 490.426, 247.129 486.066, 245.050 483.560 C 243.516 481.712, 238.900 481.500, 237.200 483.200 M 456 515.500 L 456 548 459 548 L 462 548 462.015 534.750 C 462.024 527.462, 462.379 520.952, 462.805 520.281 C 463.332 519.451, 467.710 518.973, 476.540 518.781 C 489.121 518.508, 489.509 518.434, 489.820 516.250 C 490.046 514.659, 489.606 513.960, 488.320 513.864 C 487.319 513.790, 481.100 513.452, 474.500 513.114 L 462.500 512.500 462.500 502 C 462.500 496.225, 462.823 490.712, 463.219 489.750 C 463.856 488.198, 465.564 488, 478.346 488 C 489.742 488, 493.008 487.695, 493.964 486.544 C 496.519 483.465, 494.023 483, 474.941 483 L 456 483 456 515.500 M 508.250 499.662 C 506.613 500.323, 506.426 547.527, 508.057 548.535 C 508.638 548.894, 510.213 548.912, 511.557 548.575 L 514 547.962 514 524.516 C 514 502.359, 513.894 501.013, 512.066 500.035 C 511.002 499.466, 509.989 499.036, 509.816 499.079 C 509.642 499.122, 508.938 499.385, 508.250 499.662 M 550 499.693 C 549.175 499.987, 546.548 501.176, 544.163 502.335 C 540.113 504.302, 539.763 504.328, 538.864 502.721 C 537.635 500.525, 532.434 500.426, 531.607 502.582 C 531.273 503.452, 531 513.786, 531 525.547 C 531 545.638, 531.116 546.992, 532.928 547.961 C 533.988 548.529, 535.563 548.721, 536.428 548.389 C 537.770 547.874, 538 545.369, 538 531.297 C 538 512.673, 538.563 510.738, 545.046 507.094 C 551.424 503.509, 557.646 504.731, 560.996 510.225 C 562.787 513.163, 562.993 515.273, 562.996 530.750 L 563 548 566.559 548 L 570.119 548 569.809 528.570 C 569.527 510.814, 569.323 508.897, 567.441 506.320 C 563.736 501.244, 554.980 497.917, 550 499.693 M 653.120 500.094 C 647.878 501.692, 645.149 503.890, 642.236 508.861 C 639.935 512.787, 639.497 514.829, 639.160 523.221 C 638.801 532.159, 638.991 533.462, 641.361 538.305 C 644.716 545.163, 649.644 548.101, 658.892 548.755 C 666.301 549.279, 672.654 547.919, 676.155 545.058 C 678.035 543.522, 678.252 542.890, 677.252 541.873 C 676.244 540.848, 675.089 540.932, 671.252 542.307 C 658.024 547.048, 647.159 541.958, 646.215 530.578 L 645.764 525.141 661.920 524.820 C 680.073 524.460, 680.449 524.303, 679.411 517.500 C 677.723 506.431, 671.673 500.216, 661.859 499.471 C 658.911 499.247, 654.979 499.528, 653.120 500.094 M 312.500 501.412 C 307.376 503.689, 304.667 507.445, 304.667 512.273 C 304.667 518.820, 307.195 521.722, 316.716 526.100 C 325.542 530.158, 327.630 532.640, 326.387 537.593 C 325.049 542.924, 317.116 544.631, 308.921 541.352 C 305.427 539.954, 304.667 539.916, 303.917 541.102 C 302.587 543.204, 303.270 544.323, 307.060 546.248 C 311.299 548.403, 321.671 548.582, 326.454 546.584 C 330.705 544.807, 332.830 541.619, 333.548 535.935 C 334.511 528.322, 331.327 525.123, 316.787 519.098 C 311.014 516.706, 309.628 513.320, 312.720 509.163 C 314.279 507.068, 315.681 506.435, 319.298 506.197 C 321.977 506.021, 325.090 506.512, 326.757 507.374 C 330.338 509.226, 333.070 508, 331.425 505.278 C 328.635 500.663, 318.736 498.640, 312.500 501.412 M 405.759 501.423 C 400.557 503.280, 397 505.770, 397 507.554 C 397 509.901, 399.944 510.464, 402.946 508.691 C 407.839 505.800, 414.596 504.804, 418.434 506.408 C 422.639 508.165, 424 510.581, 424 516.290 L 424 520.711 416.750 521.262 C 400.306 522.510, 392.721 530.246, 396.975 541.434 C 399.389 547.784, 411.476 550.173, 419.481 545.882 L 423.432 543.765 424.838 545.882 C 425.614 547.051, 427.309 548, 428.622 548 L 431 548 431 528.950 C 431 507.776, 430.462 505.472, 424.701 501.960 C 420.888 499.635, 411.514 499.369, 405.759 501.423 M 707.500 501.842 C 705.850 502.850, 703.887 504.419, 703.137 505.327 C 701.403 507.427, 700 506.584, 700 503.441 C 700 501.392, 699.515 501, 696.982 501 L 693.964 501 694.232 524.750 L 694.500 548.500 696.887 548.837 C 698.200 549.023, 699.655 548.573, 700.122 547.837 C 700.588 547.102, 700.976 540.070, 700.985 532.210 C 700.998 519.989, 701.285 517.362, 702.969 514.061 C 705.642 508.820, 710.978 505.586, 715.537 506.441 C 718.688 507.032, 719 506.879, 719 504.745 C 719 503.455, 718.460 501.860, 717.800 501.200 C 716.030 499.430, 710.925 499.748, 707.500 501.842 M 238 524.434 L 238 548 240.893 548 C 242.609 548, 244.033 547.356, 244.393 546.418 C 245.144 544.461, 244.959 519.170, 244.119 509 C 243.520 501.738, 243.413 501.490, 240.750 501.184 L 238 500.867 238 524.434 M 599.388 505.980 C 596.359 507.204, 593.183 511.611, 591.892 516.381 C 590.448 521.717, 591.238 532.626, 593.366 536.741 C 596.427 542.660, 603.803 544.611, 610.717 541.330 C 616.505 538.583, 617.992 535.009, 617.996 523.827 C 618 514.771, 617.827 513.948, 615.297 510.941 C 611.026 505.865, 604.618 503.867, 599.388 505.980 M 650.459 508.341 C 646.992 511.808, 645.357 515.883, 646.373 518.529 C 646.865 519.813, 648.953 520.016, 659.230 519.781 L 671.500 519.500 671.813 515.713 C 672.077 512.512, 671.588 511.388, 668.663 508.463 C 665.522 505.322, 664.669 505, 659.500 505 C 654.371 505, 653.465 505.335, 650.459 508.341 M 415.500 525.468 C 414.950 525.664, 413.297 526.089, 411.827 526.412 C 410.357 526.735, 407.769 528.165, 406.077 529.589 C 401.816 533.174, 401.816 537.826, 406.077 541.411 C 409.561 544.343, 411.669 544.594, 416.282 542.629 C 422.124 540.139, 424.154 536.969, 423.807 530.875 L 423.500 525.500 420 525.305 C 418.075 525.198, 416.050 525.271, 415.500 525.468" stroke="none" fill="#000000" fill-rule="evenodd"/><path d="M 428.500 83.468 C 430.150 84.865, 436.225 89.241, 442 93.193 C 474.429 115.388, 499.749 136.147, 528.352 163.989 C 565.112 199.772, 585.578 233.003, 593.639 270 C 596.445 282.876, 596.139 309.137, 593.033 322 C 587.801 343.670, 577.899 363.476, 565.655 376.759 C 563.484 379.114, 562.041 381.369, 562.448 381.770 C 563.484 382.791, 572.497 372.866, 578.667 363.912 C 589.835 347.704, 598.365 326.489, 601.395 307.381 C 603.433 294.530, 603.481 269.801, 601.494 256.500 C 595.046 213.342, 569.981 174.868, 526.875 141.960 C 503.389 124.031, 464.478 100.111, 436 86.097 C 428.356 82.335, 426.316 81.620, 428.500 83.468 M 407.841 87.364 C 376.355 101.853, 342 123.046, 315.309 144.448 C 300.400 156.402, 280.009 177.118, 271.688 188.762 C 252.906 215.047, 243.035 247.610, 243.008 283.372 C 242.987 310.900, 250.412 335.668, 265.546 358.561 C 270.789 366.491, 283.384 381, 285.026 381 C 285.487 381, 282.715 376.837, 278.866 371.750 C 270.126 360.199, 261.832 343.555, 258.310 330.500 C 255.831 321.309, 255.614 319.003, 255.638 302 C 255.666 281.557, 257.304 270.944, 263.121 253.500 C 272.719 224.723, 295.743 191.484, 330.923 155.619 C 358.003 128.012, 377.109 111.924, 407 91.559 C 418.378 83.806, 420.825 82, 419.949 82 C 419.701 82, 414.252 84.414, 407.841 87.364 M 47 156.395 C 47 161.078, 50.549 172.144, 54.689 180.371 C 61.307 193.521, 72.079 201.169, 90.667 205.915 C 99.455 208.159, 106.531 208.669, 105.490 206.984 C 105.144 206.425, 104.373 206.269, 103.776 206.638 C 103.146 207.028, 102.977 206.846, 103.373 206.205 C 103.753 205.590, 102.668 204.082, 100.923 202.800 C 99.199 201.535, 94.416 196.225, 90.294 191 C 86.171 185.775, 80.256 179.104, 77.149 176.175 L 71.500 170.850 89.523 179.817 C 99.436 184.749, 109.935 190.671, 112.853 192.978 C 115.772 195.285, 118.413 196.920, 118.723 196.610 C 119.500 195.833, 117.474 186.294, 115.577 181.800 C 113.532 176.957, 106.516 169.563, 104.908 170.557 C 104.156 171.022, 103.949 170.891, 104.367 170.216 C 105.989 167.591, 79.618 158.281, 60.048 154.569 C 47.712 152.228, 47 152.328, 47 156.395 M 769.663 155.023 C 768.102 155.491, 761.802 156.371, 755.663 156.978 C 749.523 157.585, 742.708 158.559, 740.517 159.143 C 728.532 162.332, 717.140 172.187, 711.559 184.192 C 706.592 194.877, 706.395 195.890, 709.352 195.566 C 710.690 195.419, 715.096 193.492, 719.143 191.283 C 723.189 189.075, 731.550 185.146, 737.721 182.553 C 748.830 177.884, 757.290 173.021, 766 166.298 L 770.500 162.824 765.533 167.520 C 762.802 170.103, 756.277 175.259, 751.033 178.978 C 745.790 182.697, 739.475 187.926, 737 190.598 C 734.525 193.271, 730.362 197.519, 727.750 200.039 C 725.138 202.559, 723 204.931, 723 205.310 C 723 207, 737.263 205.892, 744.305 203.656 C 762.879 197.758, 773.354 183.475, 775.565 161.034 C 776.330 153.274, 776.140 153.080, 769.663 155.023 M 461.750 190.747 C 469.038 190.918, 480.962 190.918, 488.250 190.747 C 495.538 190.577, 489.575 190.437, 475 190.437 C 460.425 190.437, 454.462 190.577, 461.750 190.747 M 468.299 233.745 C 473.139 233.929, 480.789 233.928, 485.299 233.743 C 489.810 233.558, 485.850 233.408, 476.500 233.409 C 467.150 233.410, 463.460 233.562, 468.299 233.745 M 721.024 240.603 C 709.832 243.611, 701.445 250.522, 696.971 260.426 C 693.688 267.692, 688.738 283.071, 689.452 283.785 C 689.730 284.064, 692.555 283.137, 695.729 281.725 C 704.559 277.799, 711.102 276.198, 729.282 273.517 C 746.995 270.906, 756.563 268.194, 768.283 262.463 L 775.500 258.934 771.500 262.575 C 764.652 268.809, 754.158 275.383, 734.475 285.773 C 722.930 291.867, 715.368 296.447, 715.162 297.470 C 714.670 299.919, 717.590 301.654, 725.491 303.606 C 750.160 309.701, 774.044 299.764, 784.466 279.067 C 788.355 271.344, 794.636 253.446, 795.175 248.550 C 795.500 245.602, 795.496 245.600, 787 243.894 C 763.013 239.079, 732.383 237.551, 721.024 240.603 M 72.500 252.018 C 64.986 252.819, 30.761 258.906, 30.110 259.557 C 28.337 261.330, 57.452 291.862, 66.172 297.376 C 73.648 302.103, 85.441 306, 92.266 306 C 102.426 306, 117.486 301.043, 118.737 297.288 C 118.937 296.688, 116.041 295.201, 112.301 293.984 C 108.560 292.767, 100.872 289.315, 95.215 286.312 C 81.995 279.296, 73.535 276.383, 60.841 274.476 C 55.211 273.631, 50.434 272.767, 50.224 272.557 C 50.014 272.348, 52.916 271.842, 56.671 271.434 C 61.021 270.962, 70.475 271.309, 82.714 272.390 C 108.978 274.711, 120.324 276.544, 126.811 279.514 C 129.832 280.897, 132.499 281.834, 132.738 281.596 C 133.808 280.525, 129.228 273.410, 123.455 267.174 C 110.808 253.514, 96.995 249.406, 72.500 252.018 M 422.310 265.500 C 422.315 268.800, 422.502 270.029, 422.725 268.232 C 422.947 266.435, 422.943 263.735, 422.715 262.232 C 422.486 260.729, 422.304 262.200, 422.310 265.500 M 635.131 306.092 C 629.600 308.856, 618 318.496, 618 320.328 C 618 320.720, 619.782 320.132, 621.960 319.020 C 627.078 316.409, 631.182 316.439, 633.595 319.103 C 635.253 320.933, 635.572 323.366, 636.058 337.853 C 636.572 353.178, 636.872 355.254, 639.838 364 C 647.100 385.407, 657.293 401.543, 666.315 405.910 C 671.959 408.642, 682.735 408.680, 701.763 406.033 C 726.144 402.642, 734.702 400.011, 746.181 392.380 C 753.538 387.489, 760.092 380.291, 757.834 379.584 C 757.100 379.354, 754.025 378.931, 751 378.644 C 745.552 378.126, 734.455 375.212, 735.178 374.488 C 735.385 374.282, 737.567 374.577, 740.027 375.146 C 749.406 377.313, 764.113 374.214, 770.201 368.787 C 772.015 367.170, 772.712 366.092, 771.750 366.392 C 770.788 366.692, 770 366.607, 770 366.203 C 770 365.800, 767.781 364.681, 765.069 363.718 C 762.358 362.755, 754.820 358.114, 748.319 353.404 C 720.717 333.407, 701.367 321.956, 684.852 315.844 C 678.317 313.425, 674.909 312.755, 669.184 312.762 C 661.970 312.772, 661.839 312.725, 659.684 309.397 C 655.049 302.235, 645.438 300.942, 635.131 306.092 M 177.415 307.970 C 176.269 308.434, 172.861 310.393, 169.842 312.325 C 159.324 319.052, 152.111 321.841, 143.500 322.507 C 139.100 322.847, 133.250 323.610, 130.500 324.201 C 123.378 325.733, 109.391 331.926, 100.414 337.521 C 90.543 343.673, 70.399 359.922, 70.833 361.381 C 71.017 361.996, 70.852 362.185, 70.468 361.801 C 70.083 361.416, 67.526 362.274, 64.786 363.707 C 62.045 365.140, 57.606 366.524, 54.920 366.782 C 52.234 367.040, 50.285 367.652, 50.588 368.142 C 50.890 368.632, 51.627 368.731, 52.224 368.362 C 52.840 367.981, 53.024 368.152, 52.648 368.760 C 51.664 370.353, 57.807 373.735, 65.082 375.604 C 74.757 378.090, 94.505 377.022, 111.929 373.070 C 124.544 370.209, 129.332 369.736, 123.889 371.889 C 122.575 372.408, 118.125 374.246, 114 375.973 C 102.382 380.837, 93.396 383.027, 82.500 383.649 C 74.992 384.078, 71.441 383.849, 68.250 382.727 C 61.726 380.435, 62.659 382.903, 71.750 391.983 C 78.058 398.284, 81.267 400.577, 89 404.313 C 107.095 413.055, 127.643 415.988, 138 411.308 C 142.630 409.216, 162.163 396.625, 167.500 392.293 C 173.969 387.042, 183.243 377.296, 186.291 372.546 L 189.495 367.554 189.997 346.481 C 190.432 328.268, 190.749 325.029, 192.335 322.611 C 193.955 320.138, 194.655 319.861, 198.335 320.229 C 203.605 320.756, 205.314 321.247, 206.235 322.500 C 206.706 323.141, 206.975 323.097, 206.985 322.377 C 207.006 320.841, 199.016 313.600, 193.299 309.975 C 188.452 306.901, 182.055 306.093, 177.415 307.970 M 617.392 490 C 617.392 497.425, 617.549 500.462, 617.742 496.750 C 617.934 493.038, 617.934 486.962, 617.742 483.250 C 617.549 479.538, 617.392 482.575, 617.392 490 M 344.442 517 C 344.442 533.225, 344.580 539.862, 344.748 531.750 C 344.916 523.638, 344.916 510.363, 344.748 502.250 C 344.580 494.137, 344.442 500.775, 344.442 517 M 530.426 525.500 C 530.427 537.600, 530.571 542.413, 530.747 536.195 C 530.923 529.977, 530.922 520.077, 530.746 514.195 C 530.569 508.313, 530.425 513.400, 530.426 525.500 M 470.292 512.742 C 474.027 512.935, 479.877 512.934, 483.292 512.739 C 486.706 512.545, 483.650 512.387, 476.500 512.389 C 469.350 512.390, 466.556 512.550, 470.292 512.742 M 463.437 520.303 C 463.162 521.019, 463.079 527.432, 463.251 534.553 L 463.565 547.500 463.783 533.794 L 464 520.088 471.250 519.743 L 478.500 519.397 471.219 519.199 C 466.010 519.057, 463.795 519.371, 463.437 520.303 M 582.300 525 C 582.300 528.025, 582.487 529.263, 582.716 527.750 C 582.945 526.237, 582.945 523.763, 582.716 522.250 C 582.487 520.737, 582.300 521.975, 582.300 525 M 701.395 534.500 C 701.396 542.200, 701.553 545.218, 701.743 541.206 C 701.934 537.195, 701.932 530.895, 701.741 527.206 C 701.549 523.518, 701.393 526.800, 701.395 534.500" stroke="none" fill="#1b7fc4" fill-rule="evenodd"/><path d="M 366 192.949 C 364.075 193.972, 361.377 196.089, 360.004 197.654 L 357.507 200.500 360.504 197.809 C 362.152 196.329, 365.525 194.201, 368 193.081 C 370.475 191.961, 371.825 191.054, 371 191.066 C 370.175 191.078, 367.925 191.926, 366 192.949 M 415.388 195.732 C 416.889 197.505, 417.159 198.942, 416.701 202.732 C 416.328 205.828, 416.430 206.799, 416.993 205.500 C 418.638 201.702, 418.109 197.402, 415.750 195.405 L 413.500 193.500 415.388 195.732 M 386.768 205.725 C 388.565 205.947, 391.265 205.943, 392.768 205.715 C 394.271 205.486, 392.800 205.304, 389.500 205.310 C 386.200 205.315, 384.971 205.502, 386.768 205.725 M 458.667 206.667 C 457.744 207.589, 457.823 232.772, 458.750 233.348 C 459.163 233.604, 459.363 227.789, 459.196 220.426 L 458.892 207.039 481.196 206.749 L 503.500 206.460 481.417 206.230 C 469.271 206.103, 459.033 206.300, 458.667 206.667 M 352.349 218 C 352.349 222.675, 352.522 224.588, 352.732 222.250 C 352.943 219.912, 352.943 216.088, 352.732 213.750 C 352.522 211.412, 352.349 213.325, 352.349 218 M 474.500 234.670 C 486.647 235.397, 498.777 235.438, 498.349 234.750 C 498.092 234.338, 491.496 234.083, 483.691 234.185 C 475.886 234.287, 471.750 234.505, 474.500 234.670 M 364.600 243.162 C 365.249 244.213, 375.057 249.276, 375.529 248.804 C 375.711 248.623, 373.204 247.081, 369.959 245.380 C 366.713 243.678, 364.302 242.679, 364.600 243.162 M 458.445 250.282 C 458.175 250.987, 458.087 259.875, 458.251 270.032 L 458.548 288.500 458.774 269.273 L 459 250.046 476.750 249.748 L 494.500 249.451 476.719 249.225 C 463.012 249.052, 458.824 249.294, 458.445 250.282 M 397.467 260.816 C 397.998 261.592, 398.726 264.313, 399.083 266.863 L 399.733 271.500 399.866 267.361 C 399.954 264.662, 399.391 262.558, 398.250 261.314 C 397.288 260.264, 396.935 260.041, 397.467 260.816 M 412.793 288.103 C 410.204 290.796, 408.276 293, 408.508 293 C 409.418 293, 416.132 286.621, 417.073 284.863 C 418.443 282.304, 418.161 282.517, 412.793 288.103 M 442.306 294.402 C 444.178 296.136, 446.238 297, 448.500 297 C 450.762 297, 452.822 296.136, 454.694 294.402 L 457.500 291.805 454.615 293.902 C 453.028 295.056, 450.277 296, 448.500 296 C 446.723 296, 443.972 295.056, 442.385 293.902 L 439.500 291.805 442.306 294.402 M 377.776 299.733 C 380.128 299.945, 383.728 299.942, 385.776 299.727 C 387.824 299.512, 385.900 299.339, 381.500 299.343 C 377.100 299.346, 375.424 299.522, 377.776 299.733 M 618 476.739 C 618 477.212, 619.575 477.415, 621.500 477.190 L 625 476.781 625 512.391 L 625 548 622 548 C 619.973 548, 619 547.503, 619 546.469 C 619 543.922, 616.498 543.774, 612.576 546.088 C 610.534 547.293, 606.306 548.607, 603.181 549.008 L 597.500 549.738 602.081 549.869 C 605.188 549.958, 608.243 549.197, 611.581 547.504 C 617.537 544.482, 617.630 544.476, 618.308 547.069 C 618.742 548.729, 619.506 549.075, 622.174 548.819 L 625.500 548.500 625.500 512.500 L 625.500 476.500 621.750 476.190 C 619.688 476.019, 618 476.266, 618 476.739 M 260.455 479.257 C 260.190 479.948, 260.091 495.810, 260.236 514.507 L 260.500 548.500 263.917 548.500 C 265.884 548.500, 267.443 547.959, 267.592 547.225 C 267.734 546.524, 267.621 546.411, 267.342 546.975 C 267.062 547.539, 265.510 548, 263.892 548 L 260.950 548 261.225 513 C 261.376 493.749, 261.373 477.999, 261.219 478 C 261.064 478, 260.720 478.565, 260.455 479.257 M 505.571 480.571 C 504.707 481.436, 504.061 483.123, 504.136 484.321 L 504.272 486.500 504.696 484.323 C 505.217 481.646, 506.735 480.332, 510 479.732 L 512.500 479.272 509.821 479.136 C 508.348 479.061, 506.436 479.707, 505.571 480.571 M 148.250 481.716 C 149.762 481.945, 152.238 481.945, 153.750 481.716 C 155.262 481.487, 154.025 481.300, 151 481.300 C 147.975 481.300, 146.738 481.487, 148.250 481.716 M 190.216 493.250 C 189.982 507.063, 190.311 507.792, 195 503.859 L 197.500 501.763 194.785 503.381 C 193.292 504.272, 191.843 505, 191.566 505 C 191.289 505, 190.920 499.488, 190.747 492.750 L 190.432 480.500 190.216 493.250 M 352.216 493.691 C 351.999 505.962, 352.626 508.442, 355.137 505.239 C 356.365 503.672, 356.330 503.633, 354.782 504.846 C 353.180 506.101, 353.042 505.351, 352.748 493.846 L 352.432 481.500 352.216 493.691 M 474.473 482.749 C 484.908 482.912, 493.866 483.466, 494.381 483.981 C 494.960 484.560, 494.829 485.501, 494.035 486.458 C 492.991 487.716, 490.119 488, 478.437 488 C 470.561 488, 463.909 488.337, 463.652 488.750 C 463.396 489.163, 469.845 489.365, 477.983 489.201 C 491.112 488.936, 492.976 488.684, 494.527 486.970 C 495.957 485.390, 496.046 484.760, 495.016 483.519 C 493.956 482.242, 490.707 482.036, 474.628 482.227 L 455.500 482.453 474.473 482.749 M 455.385 496 C 455.385 502.875, 455.545 505.688, 455.740 502.250 C 455.936 498.813, 455.936 493.188, 455.740 489.750 C 455.545 486.313, 455.385 489.125, 455.385 496 M 618.193 496.250 C 617.988 503.430, 617.457 504.001, 613.434 501.365 C 612.061 500.465, 610.744 499.922, 610.508 500.158 C 610.272 500.395, 611.649 501.433, 613.567 502.466 C 618.241 504.983, 619.187 503.784, 618.744 495.898 L 618.385 489.500 618.193 496.250 M 462.160 502.191 C 462.072 507.521, 462.337 512.092, 462.750 512.349 C 463.163 512.606, 463.377 509.595, 463.226 505.658 C 462.760 493.474, 462.327 492.066, 462.160 502.191 M 413.264 499.718 C 414.784 499.947, 417.034 499.941, 418.264 499.704 C 419.494 499.467, 418.250 499.279, 415.500 499.286 C 412.750 499.294, 411.744 499.488, 413.264 499.718 M 506.667 499.667 C 505.742 500.591, 505.823 547.772, 506.750 548.347 C 507.163 548.602, 507.372 537.978, 507.215 524.736 C 506.992 505.965, 507.212 500.482, 508.215 499.846 C 508.948 499.381, 509.035 499.024, 508.417 499.015 C 507.821 499.007, 507.033 499.300, 506.667 499.667 M 512.250 500.080 C 513.826 500.998, 514.023 503.405, 514.230 524.300 L 514.461 547.500 514.749 524.625 C 515.036 501.889, 514.678 498.948, 511.628 499.030 C 511.007 499.047, 511.288 499.519, 512.250 500.080 M 559.993 500.593 C 561.914 501.426, 564.611 503.096, 565.986 504.304 L 568.486 506.500 566.495 504.148 C 564.335 501.595, 559.878 498.977, 557.800 499.039 C 557.085 499.061, 558.072 499.760, 559.993 500.593 M 713.500 499.738 C 715.150 499.980, 717.063 500.642, 717.750 501.211 C 719.256 502.457, 719.409 506.630, 717.975 507.342 C 717.411 507.621, 717.524 507.736, 718.225 507.597 C 720.220 507.200, 720.345 503.038, 718.425 500.918 C 717.344 499.722, 715.524 499.056, 713.595 499.150 L 710.500 499.300 713.500 499.738 M 291 500.658 C 291.825 500.933, 293.145 501.365, 293.934 501.619 C 294.916 501.933, 293.180 504.354, 288.434 509.289 L 281.500 516.500 288.716 509.561 C 294.270 504.219, 295.681 502.320, 294.843 501.311 C 294.245 500.590, 292.798 500.036, 291.628 500.079 C 290.238 500.131, 290.020 500.331, 291 500.658 M 326.986 501.752 C 328.903 502.713, 331.034 504.625, 331.721 506 C 332.558 507.674, 332.975 507.951, 332.985 506.839 C 333.003 504.820, 327.495 499.999, 325.173 500.002 C 324.253 500.002, 325.069 500.790, 326.986 501.752 M 693 524.440 C 693 537.948, 693.337 549, 693.750 549.001 C 694.163 549.001, 694.372 538.201, 694.215 525.001 L 693.931 501 696.965 501 C 699.516 501, 700 501.389, 700 503.441 C 700 507.026, 701.396 507.293, 704.105 504.226 C 705.895 502.199, 705.975 501.955, 704.421 503.257 C 701.712 505.529, 701.204 505.457, 700.820 502.750 C 700.563 500.943, 699.762 500.439, 696.750 500.190 L 693 499.879 693 524.440 M 237.472 524.749 L 237.500 548.500 240.917 548.500 C 242.884 548.500, 244.443 547.959, 244.592 547.225 C 244.734 546.524, 244.621 546.411, 244.342 546.975 C 244.062 547.539, 242.529 548, 240.935 548 L 238.036 548 237.740 524.499 L 237.445 500.999 237.472 524.749 M 243.989 508.295 L 244.477 515.500 244.790 509.102 C 244.962 505.582, 244.742 502.340, 244.302 501.897 C 243.861 501.453, 243.720 504.333, 243.989 508.295 M 646.305 502.499 C 644.132 504.021, 639.997 510.006, 640.004 511.618 C 640.006 512.103, 640.937 510.925, 642.074 509 C 643.211 507.075, 645.347 504.490, 646.820 503.255 C 649.857 500.710, 649.534 500.237, 646.305 502.499 M 588.676 505.250 C 585.625 509.339, 583.989 512.491, 584.039 514.184 C 584.061 514.908, 584.753 513.945, 585.577 512.044 C 586.402 510.144, 588.207 507.106, 589.589 505.294 C 590.971 503.482, 591.877 502, 591.602 502 C 591.327 502, 590.010 503.462, 588.676 505.250 M 276.473 511.250 L 269.500 518.500 276.750 511.527 C 283.484 505.050, 284.457 504, 283.723 504 C 283.571 504, 280.308 507.262, 276.473 511.250 M 547.052 505.947 C 546.115 506.539, 547.174 506.662, 550.052 506.294 C 552.498 505.981, 554.688 505.562, 554.917 505.362 C 555.855 504.547, 548.388 505.101, 547.052 505.947 M 603 505.692 C 612.577 507.299, 616.225 510.698, 617.097 518.824 L 617.706 524.500 617.853 519.327 C 617.975 515.039, 617.537 513.603, 615.297 510.941 C 612.220 507.284, 607.361 504.937, 603.282 505.136 C 600.603 505.267, 600.593 505.288, 603 505.692 M 650.459 508.341 C 647.006 511.794, 645.357 515.881, 646.361 518.498 C 646.829 519.718, 649.182 520, 658.910 520 C 665.494 520, 671.092 519.663, 671.348 519.250 C 671.604 518.837, 666.231 518.638, 659.407 518.807 C 647.026 519.114, 647 519.109, 647.004 516.807 C 647.009 513.259, 650.681 508.043, 654.270 506.483 C 656.345 505.581, 656.838 505.064, 655.650 505.039 C 654.632 505.018, 652.297 506.503, 650.459 508.341 M 665 506.752 C 667.002 507.752, 669.248 509.998, 670.248 512 C 671.357 514.218, 671.997 514.822, 671.998 513.650 C 672 511.252, 665.748 505, 663.350 505.002 C 662.178 505.003, 662.782 505.643, 665 506.752 M 194.478 511.127 L 190 515.255 190.223 531.377 L 190.445 547.500 190.749 531.536 C 191.084 513.967, 191.296 513.345, 198.500 508.871 C 200.150 507.846, 200.927 507.006, 200.228 507.004 C 199.528 507.002, 196.940 508.857, 194.478 511.127 M 677.505 510.218 C 678.327 512.263, 679 514.925, 679 516.135 C 679 517.344, 679.279 518.054, 679.620 517.713 C 680.572 516.762, 679.156 510.583, 677.492 508.424 C 676.193 506.738, 676.194 506.960, 677.505 510.218 M 431.419 529 C 431.419 539.725, 431.566 544.112, 431.746 538.750 C 431.925 533.388, 431.925 524.612, 431.746 519.250 C 431.566 513.888, 431.419 518.275, 431.419 529 M 570 530 L 570 548 566.523 548 L 563.046 548 562.736 530.250 L 562.427 512.500 562.463 530.500 L 562.500 548.500 566.750 548.807 L 571 549.115 571 530.557 C 571 520.351, 570.775 512, 570.500 512 C 570.225 512, 570 520.100, 570 530 M 221.224 530.180 C 221.003 547.639, 220.972 547.866, 218.750 548.294 L 216.500 548.728 218.781 548.864 C 220.036 548.939, 221.285 548.421, 221.557 547.713 C 221.828 547.006, 221.915 538.793, 221.749 529.463 L 221.448 512.500 221.224 530.180 M 383.413 530.500 C 383.414 540.400, 383.564 544.315, 383.746 539.199 C 383.928 534.084, 383.927 525.984, 383.744 521.199 C 383.561 516.415, 383.412 520.600, 383.413 530.500 M 455.465 531.500 L 455.500 548.500 459.250 548.810 L 463 549.121 462.781 534.810 L 462.561 520.500 462.252 534.250 L 461.944 548 458.995 548 L 456.047 548 455.738 531.250 L 455.429 514.500 455.465 531.500 M 538.223 530.667 C 538.059 543.291, 537.669 547.967, 536.750 548.338 C 535.771 548.733, 535.778 548.859, 536.781 548.921 C 538.874 549.050, 539.066 547.202, 538.749 529.962 L 538.447 513.500 538.223 530.667 M 638.349 525 C 638.349 529.675, 638.522 531.587, 638.732 529.250 C 638.943 526.913, 638.943 523.087, 638.732 520.750 C 638.522 518.413, 638.349 520.325, 638.349 525 M 483.500 519 L 477.500 519.664 483.191 519.832 C 486.321 519.924, 489.160 519.550, 489.500 519 C 489.840 518.450, 489.979 518.076, 489.809 518.168 C 489.639 518.261, 486.800 518.635, 483.500 519 M 591.328 524.500 C 591.333 528.350, 591.513 529.802, 591.730 527.728 C 591.946 525.653, 591.943 522.503, 591.722 520.728 C 591.501 518.952, 591.324 520.650, 591.328 524.500 M 352.400 533.500 C 352.401 541.750, 352.556 544.992, 352.744 540.704 C 352.932 536.417, 352.931 529.667, 352.742 525.704 C 352.552 521.742, 352.399 525.250, 352.400 533.500 M 267.409 525.377 C 267.118 526.134, 267.051 528.947, 267.260 531.627 L 267.640 536.500 267.820 530.833 C 267.929 527.385, 268.489 524.969, 269.250 524.662 C 270.229 524.267, 270.222 524.141, 269.219 524.079 C 268.514 524.036, 267.699 524.620, 267.409 525.377 M 650.750 525.737 C 653.638 525.939, 658.362 525.939, 661.250 525.737 C 664.138 525.535, 661.775 525.370, 656 525.370 C 650.225 525.370, 647.862 525.535, 650.750 525.737 M 376.370 538 C 376.370 543.775, 376.535 546.138, 376.737 543.250 C 376.939 540.362, 376.939 535.638, 376.737 532.750 C 376.535 529.862, 376.370 532.225, 376.370 538 M 617.150 530.765 C 616.925 535.667, 611.643 540.970, 606.268 541.691 C 600.158 542.510, 596.144 540.527, 593.895 535.576 C 592.877 533.334, 592.034 532.085, 592.022 532.800 C 591.978 535.426, 595.115 540.008, 597.967 541.483 C 606.534 545.913, 619.009 538.842, 617.720 530.288 C 617.324 527.658, 617.291 527.685, 617.150 530.765 M 639 534.966 C 639 539.974, 648.624 549.145, 653.636 548.914 C 654.909 548.855, 654.658 548.574, 652.843 548.025 C 647.426 546.389, 643.914 543.469, 641.474 538.573 C 640.114 535.842, 639 534.219, 639 534.966 M 647 535.736 C 647 536.897, 651.891 541.443, 654.684 542.878 C 657.744 544.450, 666.916 544.196, 670.500 542.440 C 672.150 541.631, 672.600 541.264, 671.500 541.624 C 667.271 543.007, 657.932 543.214, 654.977 541.991 C 653.318 541.303, 650.844 539.414, 649.480 537.794 C 648.116 536.173, 647 535.247, 647 535.736 M 421.872 537.662 C 421.118 538.576, 419.150 540.150, 417.500 541.158 C 415.850 542.167, 415.069 542.994, 415.765 542.996 C 417.021 543, 425.073 536.079, 423.872 536.027 C 423.527 536.012, 422.627 536.748, 421.872 537.662 M 585.030 538.765 C 585.014 539.460, 586.462 541.506, 588.250 543.311 C 590.038 545.116, 590.548 545.447, 589.384 544.046 C 588.220 542.646, 586.771 540.600, 586.164 539.500 C 585.557 538.400, 585.047 538.069, 585.030 538.765 M 675.750 541.031 C 678.851 542.278, 678.569 543.682, 674.750 546.011 C 672.962 547.101, 672.002 547.994, 672.615 547.996 C 674.339 548.002, 679 544.014, 679 542.534 C 679 541.198, 676.808 539.947, 674.668 540.063 C 674.026 540.098, 674.513 540.534, 675.750 541.031 M 313.750 548.723 C 315.538 548.945, 318.462 548.945, 320.250 548.723 C 322.038 548.502, 320.575 548.320, 317 548.320 C 313.425 548.320, 311.962 548.502, 313.750 548.723 M 407.250 548.716 C 408.762 548.945, 411.238 548.945, 412.750 548.716 C 414.262 548.487, 413.025 548.300, 410 548.300 C 406.975 548.300, 405.738 548.487, 407.250 548.716 M 658.250 549.716 C 659.763 549.945, 662.237 549.945, 663.750 549.716 C 665.263 549.487, 664.025 549.300, 661 549.300 C 657.975 549.300, 656.737 549.487, 658.250 549.716" stroke="none" fill="#1d5a86" fill-rule="evenodd"/><path d="M 0 309.501 L 0 619.002 421.250 618.751 L 842.500 618.500 842.752 309.250 L 843.003 0 421.502 0 L 0 0 0 309.501 M 0.494 310 C 0.494 480.225, 0.609 549.863, 0.750 464.750 C 0.891 379.638, 0.891 240.363, 0.750 155.250 C 0.609 70.138, 0.494 139.775, 0.494 310 M 550.895 44.374 C 552.243 45.997, 566.033 54.313, 581.639 62.913 L 592.778 69.051 592.005 72.275 C 591.579 74.049, 589.759 81.295, 587.960 88.378 L 584.688 101.256 587.094 103.200 C 591.071 106.413, 603.662 111.896, 612.344 114.196 C 624.113 117.314, 641.141 117.138, 647.794 113.830 C 652.442 111.519, 652.502 111.425, 655.028 102.506 C 656.840 96.110, 658.070 93.418, 659.288 93.183 C 661.519 92.753, 661.437 93.998, 658.639 103.002 C 655.124 114.313, 653.605 116.660, 647.941 119.530 C 645.090 120.975, 642.077 123.457, 640.956 125.285 C 635.928 133.483, 632.695 147.565, 634.662 152.696 C 635.451 154.753, 636.068 154.373, 644.390 146.706 C 656.322 135.712, 660 130.792, 660 125.825 C 660 123.292, 659.477 121.737, 658.500 121.362 C 656.592 120.630, 656.575 118.598, 658.462 117.031 C 659.266 116.364, 660.850 113.271, 661.982 110.159 C 663.114 107.047, 664.764 102.532, 665.649 100.128 L 667.259 95.755 672.544 96.376 C 681.327 97.409, 681.322 97.403, 680.732 104.746 C 680.293 110.225, 679.753 111.659, 677.108 114.389 C 675.280 116.274, 674 118.647, 674 120.147 C 674 121.550, 672.411 125.692, 670.470 129.351 C 668.528 133.009, 666.841 137.666, 666.720 139.699 C 666.503 143.341, 666.566 143.407, 671 144.196 C 676.750 145.218, 677.529 144.227, 678.436 134.733 C 678.913 129.736, 679.843 126.403, 681.444 123.951 C 683.477 120.839, 683.700 119.536, 683.257 113.343 C 682.678 105.250, 684.234 99, 686.828 99.001 C 688.676 99.002, 707.644 100.644, 715.500 101.483 C 720.224 101.988, 720.390 101.928, 718.500 100.403 C 716.679 98.934, 697.031 89.149, 668.500 75.503 C 662.450 72.609, 649.175 66.223, 639 61.311 C 611.038 47.814, 613.107 48.402, 583.500 45.521 C 552.883 42.541, 549.269 42.414, 550.895 44.374 M 278 54.736 C 273.325 54.917, 252.606 56.127, 231.958 57.424 L 194.416 59.782 184.458 65.247 C 178.981 68.253, 166.291 74.680, 156.258 79.530 C 146.225 84.381, 138.151 88.484, 138.316 88.649 C 138.481 88.814, 144.439 87.403, 151.558 85.513 C 158.676 83.623, 173.500 80.485, 184.500 78.540 C 195.500 76.595, 212.141 73.456, 221.480 71.565 C 230.819 69.674, 238.654 68.321, 238.891 68.558 C 239.415 69.082, 217.237 79.681, 205.771 84.387 C 198.717 87.282, 195.513 87.948, 184 88.911 C 166.411 90.383, 139.309 93.770, 130.687 95.574 C 121.166 97.566, 95.032 107.609, 95.010 109.284 C 95.005 109.716, 97.138 109.837, 99.750 109.554 C 102.363 109.270, 115.300 108.578, 128.500 108.014 C 141.700 107.451, 155.994 106.756, 160.265 106.470 C 167.654 105.976, 168.072 106.061, 168.881 108.225 C 169.349 109.476, 171.459 119.029, 173.570 129.454 C 176.133 142.108, 177.987 148.987, 179.149 150.149 C 184.081 155.081, 204.825 157.432, 218.662 154.629 C 228.715 152.592, 237.366 149.192, 244.436 144.499 C 249.842 140.911, 257 133.620, 257 131.703 C 257 131.187, 254.252 122.156, 250.892 111.633 C 242.841 86.411, 242.702 85.898, 243.684 84.916 C 244.149 84.451, 254.647 78.492, 267.014 71.673 C 300.486 53.217, 299.614 53.845, 291.250 54.204 C 288.637 54.315, 282.675 54.555, 278 54.736 M 428.500 83.468 C 430.150 84.865, 436.225 89.241, 442 93.193 C 474.429 115.388, 499.749 136.147, 528.352 163.989 C 565.112 199.772, 585.578 233.003, 593.639 270 C 596.445 282.876, 596.139 309.137, 593.033 322 C 587.801 343.670, 577.899 363.476, 565.655 376.759 C 563.484 379.114, 562.041 381.369, 562.448 381.770 C 563.484 382.791, 572.497 372.866, 578.667 363.912 C 589.835 347.704, 598.365 326.489, 601.395 307.381 C 603.433 294.530, 603.481 269.801, 601.494 256.500 C 595.046 213.342, 569.981 174.868, 526.875 141.960 C 503.389 124.031, 464.478 100.111, 436 86.097 C 428.356 82.335, 426.316 81.620, 428.500 83.468 M 407.841 87.364 C 376.355 101.853, 342 123.046, 315.309 144.448 C 300.400 156.402, 280.009 177.118, 271.688 188.762 C 252.906 215.047, 243.035 247.610, 243.008 283.372 C 242.987 310.900, 250.412 335.668, 265.546 358.561 C 270.789 366.491, 283.384 381, 285.026 381 C 285.487 381, 282.715 376.837, 278.866 371.750 C 270.126 360.199, 261.832 343.555, 258.310 330.500 C 255.831 321.309, 255.614 319.003, 255.638 302 C 255.666 281.557, 257.304 270.944, 263.121 253.500 C 272.719 224.723, 295.743 191.484, 330.923 155.619 C 358.003 128.012, 377.109 111.924, 407 91.559 C 418.378 83.806, 420.825 82, 419.949 82 C 419.701 82, 414.252 84.414, 407.841 87.364 M 47 156.265 C 47 165.645, 55.488 184.583, 63.106 192.201 C 70.793 199.888, 91.174 208.022, 102.667 207.989 L 106.500 207.978 100.418 202.239 C 97.073 199.083, 91.744 193.125, 88.576 189 C 85.408 184.875, 80.270 179.104, 77.158 176.175 L 71.500 170.850 89.523 179.817 C 99.436 184.749, 109.885 190.632, 112.744 192.892 C 115.602 195.151, 118.230 197, 118.584 197 C 119.566 197, 118.012 188.083, 116.238 183.537 C 112.709 174.498, 105.406 168.325, 92.474 163.450 C 83.296 159.990, 61.126 154.337, 53.250 153.447 L 47 152.742 47 156.265 M 769.663 155.023 C 768.102 155.491, 761.802 156.371, 755.663 156.978 C 737.141 158.810, 730.247 161.593, 720.782 171.058 C 715.414 176.426, 709.679 186.233, 707.514 193.750 C 706.534 197.151, 709.132 196.649, 718.418 191.643 C 722.863 189.247, 731.550 185.160, 737.721 182.561 C 748.834 177.882, 757.300 173.014, 766 166.298 L 770.500 162.824 765.533 167.520 C 762.802 170.103, 756.277 175.259, 751.033 178.978 C 745.790 182.697, 739.475 187.926, 737 190.598 C 734.525 193.271, 730.362 197.519, 727.750 200.039 C 725.138 202.559, 723 204.931, 723 205.310 C 723 207, 737.263 205.892, 744.305 203.656 C 762.879 197.758, 773.354 183.475, 775.565 161.034 C 776.330 153.274, 776.140 153.080, 769.663 155.023 M 674 174.936 C 670.975 176.456, 661.537 180.336, 653.027 183.559 C 644.134 186.927, 635.015 191.137, 631.584 193.459 C 620.775 200.776, 614.822 212.602, 614.620 227.159 C 614.554 231.921, 614.827 236.149, 615.228 236.553 C 615.628 236.958, 620.365 233.061, 625.754 227.894 C 631.144 222.727, 638.678 216.475, 642.496 214 C 646.314 211.525, 653.706 206.645, 658.922 203.155 L 668.406 196.809 663.479 202.655 C 660.769 205.870, 656.251 210.975, 653.437 214 C 638.707 229.839, 632.845 237.373, 628.433 246.133 C 624.658 253.630, 621 265.733, 621 270.730 C 621 274.615, 621.908 274.753, 633.162 272.588 C 642.848 270.725, 650.490 267.777, 657.646 263.145 C 679.912 248.731, 687.290 226.390, 682.500 187.893 C 681.515 179.977, 680.437 173.201, 680.104 172.836 C 679.772 172.471, 677.025 173.416, 674 174.936 M 145.893 179.750 C 145.312 181.262, 143.203 189.250, 141.206 197.500 C 137.939 210.999, 137.572 213.901, 137.538 226.500 C 137.501 240.092, 137.587 240.675, 140.500 246.497 C 144.292 254.078, 155.340 265.260, 164 270.282 C 174.493 276.367, 184.280 279, 196.402 279 C 208.219 279, 213 277.789, 213 274.797 C 213 270.798, 209.788 260.530, 206.522 254.087 C 203.254 247.641, 197.369 240.224, 179.761 220.359 C 170.673 210.106, 168.682 206.863, 174.250 211.381 C 176.037 212.831, 181.875 217.175, 187.222 221.034 C 200.481 230.603, 211.165 239.285, 214.859 243.493 C 216.553 245.422, 218.357 247, 218.869 247 C 220.217 247, 220.722 238.395, 219.750 232 C 217.729 218.705, 203.198 203.752, 179.802 190.891 C 169.522 185.241, 151.209 177, 148.932 177 C 147.693 177, 146.554 178.031, 145.893 179.750 M 377.500 188.868 C 367.103 190.828, 357.399 197.801, 353.892 205.833 C 351.681 210.895, 351.318 222.992, 353.189 229.236 C 355.874 238.199, 364.996 245.130, 383.913 252.580 C 393.640 256.411, 399 261.313, 399 266.377 C 399 271.738, 396.595 276.658, 392.810 279.038 C 389.968 280.826, 388.298 281.066, 381 280.736 C 373.877 280.414, 371.492 279.837, 366.279 277.176 C 358.543 273.227, 354.863 273.087, 352.073 276.635 C 350.566 278.550, 350 280.722, 350 284.584 C 350 289.435, 350.291 290.120, 353.345 292.450 C 358.492 296.375, 367.491 299.069, 377.500 299.680 C 398.141 300.940, 413.736 293.570, 420.202 279.500 C 422.079 275.416, 422.490 272.851, 422.444 265.500 C 422.381 255.377, 421.102 251.463, 415.929 245.572 C 410.898 239.842, 403.682 235.451, 391.747 230.858 C 379.217 226.036, 375 222.387, 375 216.366 C 375 209.474, 383.766 204.727, 393.559 206.316 C 395.456 206.624, 399.719 208.254, 403.034 209.938 C 406.348 211.622, 409.637 213, 410.343 213 C 413.134 213, 417.220 207.226, 417.749 202.534 C 418.437 196.434, 415.885 193.665, 407.058 190.930 C 399.920 188.718, 384.136 187.617, 377.500 188.868 M 444.014 191.752 C 442.097 192.713, 439.966 194.625, 439.279 196 C 437.590 199.380, 437.439 288.035, 439.117 291.316 C 439.731 292.517, 441.194 294.277, 442.367 295.228 C 444.872 297.257, 451.937 297.571, 454.108 295.750 C 458.279 292.251, 458.488 291.176, 459 270.599 L 459.500 250.500 478.839 250 L 498.178 249.500 500.589 246.694 C 504.632 241.989, 503.324 236.869, 497.452 234.415 C 494.967 233.377, 489.384 233, 476.502 233 L 458.940 233 459.220 220.250 L 459.500 207.500 482.220 207 C 501.776 206.570, 505.219 206.261, 506.942 204.783 C 509.583 202.520, 510.527 198.451, 509.125 195.374 C 506.925 190.546, 503.383 190, 474.282 190.002 C 450.782 190.003, 447.073 190.217, 444.014 191.752 M 721.024 240.603 C 709.832 243.611, 701.445 250.522, 696.971 260.426 C 693.688 267.692, 688.738 283.071, 689.452 283.785 C 689.730 284.064, 692.555 283.137, 695.729 281.725 C 704.559 277.799, 711.102 276.198, 729.282 273.517 C 746.995 270.906, 756.563 268.194, 768.283 262.463 L 775.500 258.934 771.500 262.575 C 764.652 268.809, 754.158 275.383, 734.475 285.773 C 722.930 291.867, 715.368 296.447, 715.162 297.470 C 714.670 299.919, 717.590 301.654, 725.491 303.606 C 750.160 309.701, 774.044 299.764, 784.466 279.067 C 788.355 271.344, 794.636 253.446, 795.175 248.550 C 795.500 245.602, 795.496 245.600, 787 243.894 C 763.013 239.079, 732.383 237.551, 721.024 240.603 M 72.500 252.018 C 64.986 252.819, 30.761 258.906, 30.110 259.557 C 28.337 261.330, 57.452 291.862, 66.172 297.376 C 73.648 302.103, 85.441 306, 92.266 306 C 102.426 306, 117.486 301.043, 118.737 297.288 C 118.937 296.688, 116.041 295.201, 112.301 293.984 C 108.560 292.767, 100.872 289.315, 95.215 286.312 C 81.995 279.296, 73.535 276.383, 60.841 274.476 C 55.211 273.631, 50.434 272.767, 50.224 272.557 C 50.014 272.348, 52.916 271.842, 56.671 271.434 C 61.021 270.962, 70.475 271.309, 82.714 272.390 C 108.978 274.711, 120.324 276.544, 126.811 279.514 C 129.832 280.897, 132.499 281.834, 132.738 281.596 C 133.808 280.525, 129.228 273.410, 123.455 267.174 C 110.808 253.514, 96.995 249.406, 72.500 252.018 M 268.696 261.879 C 263.501 278.662, 262.683 308.117, 266.958 324.500 C 271.937 343.587, 280.537 360.323, 292.059 373.352 C 297.160 379.121, 296.431 379.132, 315.913 372.990 L 329.249 368.785 319.796 359.143 C 308.222 347.337, 304.054 342.226, 296.028 330 C 283.832 311.422, 276.413 293.133, 273.484 274.433 C 272.629 268.970, 271.576 262.700, 271.145 260.500 L 270.361 256.500 268.696 261.879 M 579.673 264.280 C 578.051 283.306, 568.357 308.451, 554.201 330.350 C 547.803 340.248, 542.074 347.158, 530.684 358.708 C 523.760 365.731, 521.068 369.081, 522.059 369.442 C 526.370 371.016, 549.920 378, 550.915 378 C 552.827 378, 561.929 368.952, 566.507 362.500 C 579.678 343.936, 585.352 323.146, 585.338 293.500 C 585.330 277.218, 583.131 258.817, 581.039 257.524 C 580.626 257.269, 580.011 260.309, 579.673 264.280 M 635.131 306.092 C 629.600 308.856, 618 318.496, 618 320.328 C 618 320.720, 619.782 320.132, 621.960 319.020 C 627.078 316.409, 631.182 316.439, 633.595 319.103 C 635.253 320.933, 635.572 323.366, 636.058 337.853 C 636.572 353.178, 636.872 355.254, 639.838 364 C 647.100 385.407, 657.293 401.543, 666.315 405.910 C 671.959 408.642, 682.735 408.680, 701.763 406.033 C 726.144 402.642, 734.702 400.011, 746.181 392.380 C 753.538 387.489, 760.092 380.291, 757.834 379.584 C 757.100 379.354, 754.025 378.931, 751 378.644 C 745.552 378.126, 734.455 375.212, 735.178 374.488 C 735.385 374.282, 737.567 374.577, 740.027 375.146 C 749.034 377.227, 762.939 374.478, 769.884 369.244 L 773.268 366.694 767.111 364.464 C 760.208 361.965, 757.043 360.011, 742 348.958 C 720.611 333.244, 700.712 321.713, 684.852 315.844 C 678.317 313.425, 674.909 312.755, 669.184 312.762 C 661.970 312.772, 661.839 312.725, 659.684 309.397 C 655.049 302.235, 645.438 300.942, 635.131 306.092 M 177.415 307.970 C 176.269 308.434, 172.861 310.393, 169.842 312.325 C 159.324 319.052, 152.111 321.841, 143.500 322.507 C 132.324 323.371, 126.825 324.709, 116.799 329.004 C 105.097 334.017, 95.478 340.159, 80.245 352.342 C 66.093 363.660, 62.012 365.972, 54.573 366.883 L 49.500 367.505 53.069 370.233 C 60.057 375.575, 64.028 376.439, 81.500 376.419 C 95.867 376.402, 98.922 376.075, 111.430 373.213 C 124.468 370.231, 129.411 369.705, 123.889 371.889 C 122.575 372.408, 118.125 374.246, 114 375.973 C 102.382 380.837, 93.396 383.027, 82.500 383.649 C 74.992 384.078, 71.441 383.849, 68.250 382.727 C 61.726 380.435, 62.659 382.903, 71.750 391.983 C 78.058 398.284, 81.267 400.577, 89 404.313 C 107.095 413.055, 127.643 415.988, 138 411.308 C 142.630 409.216, 162.163 396.625, 167.500 392.293 C 173.969 387.042, 183.243 377.296, 186.291 372.546 L 189.495 367.554 189.997 346.481 C 190.425 328.551, 190.764 325.006, 192.273 322.705 C 194.356 319.528, 199.241 319.039, 204.050 321.526 C 208.326 323.737, 207.671 321.873, 202.495 317.102 C 194.863 310.068, 189.213 306.992, 184.054 307.063 C 181.549 307.098, 178.562 307.506, 177.415 307.970 M 417 356.609 C 413.975 357.345, 404.975 359.106, 397 360.523 C 380.165 363.514, 348.138 370.053, 333 373.589 C 306.332 379.820, 281.095 388.352, 250.119 401.610 C 237.396 407.056, 180.812 435.145, 181.394 435.727 C 181.618 435.952, 189.159 433.130, 198.151 429.457 C 242.850 411.197, 277.420 401.343, 314.233 396.367 C 330.836 394.123, 357.496 394.119, 369.914 396.359 C 386.784 399.401, 397.598 403.903, 409.206 412.717 C 417.627 419.110, 417.165 419.557, 407.354 414.509 C 388.341 404.725, 372.681 401.632, 342 401.599 C 319.739 401.576, 313.424 402.112, 289.616 406.052 C 270.601 409.199, 230.977 419.310, 232.336 420.669 C 232.537 420.871, 238.507 419.699, 245.601 418.066 C 259.830 414.790, 280.324 411.656, 298 410.051 C 310.402 408.925, 333.628 408.831, 338.500 409.887 L 341.500 410.537 341.500 420.174 C 341.500 425.475, 341.802 430.118, 342.170 430.493 C 342.539 430.867, 346.326 431.607, 350.586 432.136 C 367.479 434.233, 380.611 438.119, 385.931 442.595 C 387.526 443.937, 390.039 447.098, 391.517 449.619 C 393.468 452.948, 395.409 454.736, 398.613 456.153 C 410.777 461.534, 443.540 460.583, 456.411 454.475 C 458.140 453.655, 460.426 451.365, 461.491 449.386 C 464.405 443.977, 470.640 439.191, 477.564 437.053 C 483.297 435.282, 498.662 431.898, 507.250 430.514 L 511 429.909 511 420 L 511 410.091 514.607 409.414 C 516.591 409.042, 527.503 408.984, 538.857 409.285 C 561.522 409.885, 582.363 412.655, 604.899 418.061 C 611.719 419.697, 617.498 420.835, 617.743 420.591 C 618.333 420.001, 604.457 415.649, 592.268 412.602 C 552.453 402.648, 514.404 398.935, 488 402.427 C 465.661 405.381, 450.826 410.218, 438.063 418.708 L 431.500 423.075 438.205 416.685 C 468.301 388.004, 533.546 387.049, 612.718 414.130 C 633.153 421.120, 643.937 425.456, 656.250 431.631 C 661.063 434.045, 665 435.855, 665 435.652 C 665 434.289, 637.115 418.868, 618.781 410.091 C 568.514 386.028, 518.660 371.151, 451 360.021 C 437.525 357.805, 425.600 355.830, 424.500 355.631 C 423.400 355.433, 420.025 355.873, 417 356.609 M 676.346 418.540 C 674.582 423.138, 683.082 438.346, 691.699 446.010 C 696.568 450.341, 706.618 455.715, 707.743 454.590 C 708.081 454.252, 707.377 452.649, 706.179 451.028 C 704.981 449.407, 704 447.850, 704 447.569 C 704 447.287, 706.138 448.205, 708.750 449.610 L 713.500 452.163 736 451.751 C 764.913 451.222, 767.635 450.210, 760.872 442.508 C 756.641 437.688, 732.326 425.770, 715.944 420.486 C 708.764 418.170, 705.220 417.685, 692.270 417.248 C 678.236 416.774, 676.985 416.875, 676.346 418.540 M 138.500 419.697 C 126.704 420.761, 104.625 424.463, 97.147 426.630 C 86.021 429.854, 73.709 436.315, 67.750 442.056 C 62.684 446.937, 61.889 449.335, 64.820 450.904 C 68.275 452.753, 84.552 454.362, 100.500 454.431 C 115.109 454.494, 116.886 454.307, 120.945 452.279 C 123.390 451.057, 125.540 450.207, 125.723 450.390 C 125.906 450.573, 124.018 452.988, 121.528 455.758 C 119.037 458.528, 117 461.071, 117 461.409 C 117 462.781, 125.878 460.526, 131.466 457.734 C 143.813 451.565, 155.651 435.685, 156.798 423.750 L 157.254 419 149.877 419.168 C 145.820 419.261, 140.700 419.499, 138.500 419.697 M 617.667 476.667 C 617.300 477.033, 617 483.160, 617 490.282 L 617 503.230 614.678 501.708 C 610.562 499.011, 604.467 497.703, 599.493 498.449 C 593.476 499.351, 586.874 505.167, 584.303 511.829 C 581.526 519.025, 581.813 533.045, 584.865 539.277 C 588.383 546.461, 592.820 549.374, 600.890 549.798 C 606.360 550.086, 608.316 549.727, 612.229 547.720 C 616.650 545.451, 616.996 545.411, 617.530 547.095 C 618.215 549.253, 621.238 550.377, 624 549.500 C 625.952 548.881, 626 547.987, 626 512.433 L 626 476 622.167 476 C 620.058 476, 618.033 476.300, 617.667 476.667 M 261.737 477.760 C 260.088 478.126, 259.992 480.422, 260.237 513.326 L 260.500 548.500 264.120 548.803 C 268.689 549.185, 268.953 548.315, 268.311 535.032 C 268.023 529.094, 268.209 525, 268.765 525 C 269.282 525, 271.883 527.813, 274.546 531.250 C 286.005 546.046, 288.989 549, 292.476 549 C 294.280 549, 296.312 548.329, 296.993 547.508 C 298.025 546.265, 297.004 544.586, 290.865 537.426 C 286.814 532.701, 282.072 526.952, 280.327 524.650 L 277.153 520.466 286.577 512.194 C 291.759 507.644, 296 503.273, 296 502.480 C 296 500.704, 291.920 499.573, 288.932 500.521 C 287.716 500.908, 283.023 504.773, 278.504 509.112 C 273.985 513.450, 269.998 517, 269.644 517 C 269.290 517, 269 508.730, 269 498.622 C 269 485.103, 268.670 479.989, 267.750 479.278 C 265.926 477.866, 263.743 477.315, 261.737 477.760 M 345.558 478.584 C 344.164 479.979, 344.005 484.259, 344.237 514.334 L 344.500 548.500 348.750 548.807 L 353 549.115 353.004 533.307 C 353.007 519.298, 353.234 517.129, 354.995 514.241 C 359.413 506.994, 368.037 505.099, 372.618 510.369 C 374.539 512.579, 374.805 514.491, 375.469 530.903 L 376.201 549 380.100 549 L 384 549 384 531.149 C 384 520.485, 383.543 511.930, 382.864 509.899 C 380.057 501.500, 371.919 497.719, 362.527 500.449 C 359.631 501.291, 356.698 502.659, 356.008 503.490 C 355.319 504.320, 354.360 505, 353.878 505 C 353.395 505, 353 499.600, 353 493 C 353 482.333, 352.778 480.778, 351 479 C 348.585 476.585, 347.630 476.513, 345.558 478.584 M 182.863 480.750 C 182.664 482.262, 182.646 498.263, 182.824 516.306 L 183.148 549.112 186.824 548.806 L 190.500 548.500 191 531.633 L 191.500 514.766 195.396 511.401 C 201.938 505.750, 207.906 505.875, 211.750 511.741 C 213.184 513.929, 213.590 517.490, 214 531.456 L 214.500 548.500 218.309 548.814 L 222.118 549.128 221.809 529.237 C 221.509 509.913, 221.429 509.241, 219 505.671 C 214.125 498.505, 204.382 497.243, 195.250 502.594 L 191 505.084 191 492.742 C 191 479.422, 190.509 478, 185.913 478 C 183.738 478, 183.158 478.523, 182.863 480.750 M 505.200 480.200 C 503.481 481.919, 503.720 486.577, 505.625 488.483 C 508.089 490.947, 513.119 490.070, 514.909 486.865 C 516.227 484.506, 516.202 483.957, 514.667 481.615 C 513.397 479.676, 512.107 479, 509.677 479 C 507.875 479, 505.860 479.540, 505.200 480.200 M 141.328 482.938 C 134.426 486.072, 130.902 494.210, 133.029 502.107 C 134.583 507.877, 138.327 511.316, 148.747 516.541 C 159.542 521.954, 162 524.543, 162 530.500 C 162 541.223, 150.050 545.122, 137.550 538.476 C 132.267 535.666, 130 536.110, 130 539.952 C 130 545.502, 137.252 548.888, 149.282 548.956 C 158.497 549.008, 162.383 547.606, 166.724 542.662 C 172.854 535.680, 173.390 525.599, 168.025 518.193 C 165.877 515.228, 162.784 513.042, 155.824 509.571 C 150.696 507.014, 145.488 503.789, 144.250 502.405 C 141.253 499.053, 141.337 494.572, 144.455 491.455 C 147.680 488.229, 155.053 488.107, 162.155 491.162 C 167.468 493.447, 168.948 492.933, 168.985 488.789 C 169.042 482.330, 151.051 478.524, 141.328 482.938 M 236.655 482.829 C 234.458 485.256, 234.561 488.293, 236.912 490.420 C 241.747 494.796, 249.105 488.862, 245.557 483.447 C 243.609 480.473, 239.072 480.158, 236.655 482.829 M 455.454 483.258 C 455.189 483.950, 455.091 499.138, 455.236 517.008 L 455.500 549.500 458.310 549.822 C 463.524 550.420, 464 549.088, 464 533.907 L 464 520.058 477.250 519.779 L 490.500 519.500 490.500 516 L 490.500 512.500 477.518 512.218 C 470.379 512.064, 464.215 511.614, 463.821 511.218 C 463.428 510.823, 463.419 505.775, 463.803 500 L 464.500 489.500 479.394 489 C 491.647 488.589, 494.467 488.214, 495.303 486.886 C 495.861 485.998, 496.036 484.536, 495.691 483.636 C 495.139 482.199, 492.689 482, 475.500 482 C 460.705 482, 455.820 482.307, 455.454 483.258 M 507.232 498.835 C 506.252 499.458, 506.025 505.293, 506.232 524.570 L 506.500 549.500 509.310 549.822 C 514.885 550.461, 515 549.936, 515 523.913 C 515 501.364, 514.895 500.014, 513.066 499.035 C 510.762 497.802, 508.957 497.740, 507.232 498.835 M 545.311 500.436 C 540.787 502.542, 539.965 502.662, 538.896 501.375 C 538.126 500.447, 536.339 500.011, 534.086 500.199 L 530.500 500.500 530.231 523.875 C 529.937 549.448, 530.111 550.319, 535.415 549.801 L 538.500 549.500 539 531.352 C 539.554 511.245, 539.699 510.794, 546.688 507.478 C 551.140 505.365, 555.873 506.172, 559.090 509.593 C 561.416 512.066, 561.517 512.806, 562 530.827 L 562.500 549.500 566.500 549.500 L 570.500 549.500 571.273 539 C 572.381 523.950, 571.369 511.305, 568.666 506.425 C 566.128 501.842, 559.440 497.995, 554.038 498.010 C 552.092 498.015, 548.165 499.107, 545.311 500.436 M 651.500 499.503 C 646.283 501.348, 640.458 507.649, 638.895 513.137 C 637.003 519.782, 637.218 531.680, 639.331 537.203 C 641.446 542.733, 646.413 547.444, 651.843 549.071 C 657.398 550.735, 669.642 549.872, 674.500 547.475 C 677.573 545.957, 678.500 544.921, 678.500 543 C 678.500 539.802, 675.756 539.325, 669.529 541.439 C 663.539 543.472, 659.437 543.382, 654.424 541.105 C 649.911 539.055, 647 534.347, 647 529.099 L 647 526 661.250 525.985 C 680.896 525.965, 682.437 525, 680.027 514.231 C 677.205 501.621, 664.319 494.968, 651.500 499.503 M 311.458 500.817 C 305.031 503.836, 302.239 509.659, 304.058 516.247 C 305.271 520.641, 309.297 524.207, 315.711 526.567 C 324.869 529.937, 328.378 535.622, 324 540 C 321.493 542.507, 315.273 542.651, 309.227 540.342 C 305.271 538.832, 304.746 538.825, 303.307 540.265 C 299.337 544.234, 306.406 548.991, 316.282 548.996 C 327.595 549.002, 333.255 545.148, 334.543 536.561 C 335.680 528.977, 330.464 522.896, 320.278 519.929 C 312.769 517.743, 310.321 513.842, 313.557 509.223 C 315.434 506.543, 321.893 506.174, 326.340 508.493 C 329.698 510.245, 333 509.025, 333 506.033 C 333 500.532, 319.184 497.187, 311.458 500.817 M 405.558 500.492 C 397.596 503.328, 394.221 507.844, 398.190 510.348 C 399.479 511.161, 400.972 510.869, 404.482 509.116 C 409.577 506.571, 416.335 506.038, 419.824 507.906 C 422.381 509.274, 424 512.769, 424 516.922 C 424 519.640, 423.824 519.729, 417.217 520.343 C 403.209 521.645, 396.195 526.093, 395.274 534.258 C 394.659 539.716, 396.826 544.313, 401.299 547.040 C 405.733 549.744, 415.304 549.721, 419.774 546.996 C 423.790 544.548, 423.648 544.546, 424.308 547.069 C 424.742 548.729, 425.506 549.075, 428.174 548.819 L 431.500 548.500 431.771 528.928 C 432.033 509.968, 431.970 509.250, 429.751 505.928 C 428.491 504.043, 425.894 501.713, 423.980 500.752 C 419.773 498.638, 411.106 498.516, 405.558 500.492 M 693.200 500.200 C 691.922 501.478, 691.433 543.281, 692.644 547.801 C 693.179 549.800, 693.801 550.063, 697.380 549.801 L 701.500 549.500 702 532.950 C 702.409 519.402, 702.820 515.914, 704.264 513.714 C 707.027 509.506, 710.762 507.555, 715.647 507.767 C 719.938 507.954, 720 507.910, 720 504.678 C 720 502.875, 719.460 500.860, 718.800 500.200 C 716.662 498.062, 709.702 498.769, 706 501.500 C 701.939 504.496, 701 504.610, 701 502.107 C 701 499.135, 695.588 497.812, 693.200 500.200 M 237.714 500.619 C 237.321 501.012, 237 512.058, 237 525.167 L 237 549 241.018 549 L 245.036 549 244.768 524.750 L 244.500 500.500 241.464 500.203 C 239.794 500.039, 238.107 500.227, 237.714 500.619 M 652.514 508.168 C 649.974 510.165, 647 515.469, 647 518 C 647 518.707, 650.937 518.969, 658.750 518.782 C 670.299 518.505, 670.506 518.459, 670.839 516.101 C 671.977 508.053, 659.516 502.660, 652.514 508.168 M 597.750 508.080 C 594.874 509.755, 592.905 514.741, 592.320 521.825 C 591.258 534.702, 595.284 541.556, 603.839 541.432 C 613.275 541.295, 617 536.361, 617 524 C 617 514.727, 615.496 510.825, 611.033 508.517 C 607.704 506.796, 600.369 506.555, 597.750 508.080 M 411.030 527.559 C 405.975 529.787, 404 531.934, 404 535.200 C 404 538.715, 407.972 543.007, 411.205 542.984 C 414.517 542.960, 421.248 538.873, 422.741 535.979 C 423.445 534.615, 423.904 531.925, 423.760 530 C 423.507 526.597, 423.376 526.494, 419 526.265 C 416.525 526.136, 412.938 526.718, 411.030 527.559" stroke="none" fill="#f9f9f7" fill-rule="evenodd"/></svg>